<svg xmlns="http://www.w3.org/2000/svg" width="25" height="34" fill="none" viewBox="0 0 25 34"><g clip-path="url(#a)"><path fill="#8A8A8A" d="M20.833 30.208c.573 0 1.042-.468 1.042-1.041v-18.75h-5.208a2.081 2.081 0 0 1-2.084-2.084V3.125H4.167c-.573 0-1.042.469-1.042 1.042v25c0 .573.469 1.041 1.042 1.041h16.666ZM0 4.167A4.17 4.17 0 0 1 4.167 0H14.94c1.107 0 2.168.436 2.95 1.217l5.892 5.892A4.168 4.168 0 0 1 25 10.06v19.108a4.17 4.17 0 0 1-4.167 4.166H4.167A4.17 4.17 0 0 1 0 29.167v-25Z"/></g><defs><clipPath id="a"><path fill="#fff" d="M0 0h25v33.333H0z"/></clipPath></defs></svg>
