<svg width="31" height="39" viewBox="0 0 31 39" fill="none" xmlns="http://www.w3.org/2000/svg">
<path fill-rule="evenodd" clip-rule="evenodd" d="M15.5 36.375L16.8275 37.6987C16.6533 37.8736 16.4463 38.0124 16.2183 38.1071C15.9903 38.2018 15.7459 38.2505 15.4991 38.2505C15.2522 38.2505 15.0078 38.2018 14.7798 38.1071C14.5519 38.0124 14.3448 37.8736 14.1706 37.6987L14.1594 37.6856L14.1275 37.6537L14.0113 37.5356C13.3503 36.8548 12.7002 36.1634 12.0613 35.4619C10.457 33.704 8.92087 31.8852 7.45625 30.0094C5.78375 27.8531 4.07375 25.4156 2.77437 23.0081C1.50312 20.6475 0.5 18.09 0.5 15.75C0.5 7.23937 7.235 0.75 15.5 0.75C23.765 0.75 30.5 7.23937 30.5 15.75C30.5 18.09 29.4969 20.6475 28.2256 23.0062C26.9263 25.4175 25.2181 27.8531 23.5438 30.0094C21.4951 32.6337 19.3069 35.1461 16.9888 37.5356L16.8725 37.6537L16.8406 37.6856L16.8294 37.6969L15.5 36.375ZM15.5 21.375C16.9918 21.375 18.4226 20.7824 19.4775 19.7275C20.5324 18.6726 21.125 17.2418 21.125 15.75C21.125 14.2582 20.5324 12.8274 19.4775 11.7725C18.4226 10.7176 16.9918 10.125 15.5 10.125C14.0082 10.125 12.5774 10.7176 11.5225 11.7725C10.4676 12.8274 9.875 14.2582 9.875 15.75C9.875 17.2418 10.4676 18.6726 11.5225 19.7275C12.5774 20.7824 14.0082 21.375 15.5 21.375Z" fill="#EC5855"/>
</svg>
